<?xml version="1.0" standalone="no"?>
<!DOCTYPE svg PUBLIC "-//W3C//DTD SVG 20010904//EN"
 "http://www.w3.org/TR/2001/REC-SVG-20010904/DTD/svg10.dtd">
<svg version="1.0" xmlns="http://www.w3.org/2000/svg"
 width="1920.000000pt" height="1920.000000pt" viewBox="0 0 1920.000000 1920.000000"
 preserveAspectRatio="xMidYMid meet">

<g transform="translate(0.000000,1920.000000) scale(0.100000,-0.100000)"
fill="#000000" stroke="none">
<path d="M9795 17656 c-33 -12 -79 -34 -101 -48 -23 -15 -58 -33 -77 -42 -49
-20 -70 -56 -68 -117 1 -64 18 -128 97 -374 78 -241 94 -333 94 -560 0 -399
-105 -835 -310 -1286 -86 -190 -259 -499 -279 -499 -6 0 -342 153 -521 238
-30 14 -62 29 -72 33 -9 4 -24 2 -34 -5 -17 -13 -15 -19 21 -100 38 -83 40
-86 73 -86 25 0 42 -8 63 -31 17 -18 59 -42 106 -60 112 -43 260 -123 339
-183 l69 -51 -1 -100 c-1 -84 -6 -115 -32 -193 -36 -108 -68 -253 -81 -367 -9
-76 -14 -88 -108 -255 -54 -96 -116 -220 -137 -275 -21 -55 -52 -135 -68 -177
-16 -43 -33 -78 -37 -78 -14 0 -78 109 -120 207 -41 96 -46 102 -85 117 -130
49 -278 66 -407 46 -46 -7 -181 -14 -299 -15 -311 -3 -517 -46 -792 -165 -76
-34 -98 -49 -186 -136 -84 -84 -102 -107 -117 -154 -10 -30 -20 -58 -24 -62
-3 -3 -38 6 -76 22 -92 37 -272 76 -409 89 -774 76 -1408 -267 -1624 -879 -55
-157 -67 -235 -67 -450 0 -227 12 -286 95 -471 239 -535 630 -830 1198 -904
70 -10 133 -19 141 -21 9 -3 -30 -50 -110 -132 -364 -370 -542 -702 -683
-1274 -58 -234 -76 -353 -83 -559 -9 -257 23 -490 92 -669 178 -463 529 -792
1062 -995 65 -25 136 -54 157 -65 22 -11 41 -18 43 -16 2 2 38 97 79 212 42
114 86 229 99 255 84 166 275 393 439 524 79 64 111 76 134 53 19 -19 16 -25
-51 -96 -119 -128 -195 -241 -271 -404 -64 -136 -146 -338 -146 -358 0 -14 13
-18 63 -23 87 -9 128 -22 184 -61 59 -41 99 -103 114 -179 29 -141 -75 -312
-213 -348 -86 -23 -159 10 -218 99 -42 64 -67 68 -106 17 -25 -34 -55 -44 -80
-27 -6 4 -13 30 -16 58 -3 29 -15 68 -28 89 -23 37 -24 37 -32 15 -38 -103
-56 -462 -30 -610 55 -311 220 -604 467 -826 105 -94 182 -147 299 -205 144
-71 138 -61 109 -171 -64 -246 -87 -466 -80 -751 5 -238 22 -365 73 -567 99
-385 312 -748 557 -945 525 -424 1190 -396 1674 68 45 44 97 102 115 130 18
29 59 93 91 142 65 99 113 225 124 325 l6 59 51 12 c73 17 114 36 176 81 30
21 89 61 130 88 250 161 473 533 586 975 18 72 55 195 83 275 28 80 59 177 71
216 25 90 50 114 148 149 485 171 888 639 1031 1198 49 189 64 342 59 572 -3
110 -8 207 -12 215 -12 31 10 40 121 50 449 40 810 255 1064 634 197 293 303
709 269 1057 -33 342 -157 594 -422 857 -125 124 -175 161 -295 219 -51 24
-95 49 -99 54 -3 6 17 48 46 94 58 96 90 169 124 287 l24 83 71 6 c109 10 370
76 541 136 191 67 193 68 416 199 241 141 477 374 616 609 249 419 273 898 64
1291 -227 427 -716 705 -1239 704 -160 0 -289 -18 -465 -63 l-133 -34 -75 149
c-70 138 -82 155 -172 247 -107 108 -181 162 -305 222 -238 114 -533 121 -904
24 -92 -24 -185 -65 -198 -86 -13 -19 22 -42 67 -44 98 -4 98 -4 109 -32 20
-50 59 -257 59 -311 0 -29 -5 -62 -10 -73 -12 -22 -50 -26 -50 -4 0 8 -13 29
-28 47 -16 18 -66 118 -112 222 -103 233 -189 366 -314 491 -142 142 -297 235
-505 305 -154 52 -367 55 -629 10 -63 -10 -119 -17 -123 -14 -5 3 -9 21 -9 40
0 80 -57 291 -113 416 l-25 56 61 38 c305 188 571 641 727 1238 79 301 113
561 114 866 1 235 -9 337 -45 477 -47 179 -144 313 -270 373 -82 39 -182 41
-274 6z m-369 -4246 c62 -31 126 -91 154 -146 21 -41 25 -63 25 -134 0 -74 -3
-91 -27 -131 -52 -88 -130 -139 -212 -139 -89 0 -191 118 -203 235 -11 106 36
257 96 308 41 34 105 36 167 7z m-1906 -276 c38 -8 89 -29 114 -45 100 -67
119 -165 67 -345 -83 -283 -240 -683 -325 -828 -54 -91 -171 -214 -260 -274
-121 -81 -313 -151 -376 -137 -51 11 -115 97 -192 254 -82 168 -93 217 -84
381 10 206 68 397 150 496 29 35 73 101 100 149 107 190 274 314 477 354 75
15 254 12 329 -5z m5330 -431 c69 -22 153 -98 176 -158 35 -93 2 -199 -89
-282 -132 -121 -262 -113 -394 25 -56 59 -123 177 -123 218 0 12 15 41 33 65
97 127 253 179 397 132z m-7503 -429 c128 -73 133 -264 10 -387 -56 -56 -118
-81 -197 -81 -75 0 -113 17 -158 68 -79 90 -62 248 37 344 93 90 211 111 308
56z m5265 -1220 c130 -44 220 -202 188 -333 -26 -109 -107 -188 -224 -218 -56
-15 -73 -16 -128 -4 -75 15 -134 47 -178 98 -68 77 -93 175 -66 265 49 170
227 254 408 192z m-2658 -648 c25 -8 62 -28 81 -45 20 -17 53 -40 75 -51 46
-23 59 -44 68 -108 9 -62 9 -252 0 -322 -31 -238 -220 -527 -386 -591 -104
-39 -304 -36 -426 7 -56 20 -109 75 -141 145 -27 62 -28 79 -9 244 16 130 81
296 170 432 70 109 141 179 227 227 129 72 240 92 341 62z m-1639 -465 c50
-23 78 -53 105 -113 28 -64 34 -124 20 -194 -21 -99 -52 -153 -179 -312 -312
-391 -397 -524 -535 -836 -9 -22 -21 -35 -25 -30 -5 5 -35 105 -68 223 l-60
214 27 86 c64 203 211 556 281 674 77 130 181 224 308 278 78 34 75 33 126 10z
m3315 -2008 c66 -31 170 -134 218 -215 104 -175 119 -370 36 -466 -85 -100
-227 -73 -369 72 -153 154 -225 408 -156 544 51 100 147 123 271 65z m-1857
-4093 c71 -48 166 -156 200 -228 24 -53 30 -79 31 -137 0 -61 -4 -81 -32 -137
-56 -114 -125 -153 -201 -114 -73 38 -162 178 -196 311 -36 140 -6 269 74 319
39 23 72 19 124 -14z"/>
<path d="M6711 12484 c0 -11 3 -14 6 -6 3 7 2 16 -1 19 -3 4 -6 -2 -5 -13z"/>
<path d="M7342 12360 c0 -14 2 -19 5 -12 2 6 2 18 0 25 -3 6 -5 1 -5 -13z"/>
<path d="M6711 12324 c0 -11 3 -14 6 -6 3 7 2 16 -1 19 -3 4 -6 -2 -5 -13z"/>
<path d="M7331 12274 c0 -11 3 -14 6 -6 3 7 2 16 -1 19 -3 4 -6 -2 -5 -13z"/>
<path d="M6825 12110 c21 -22 41 -40 44 -40 3 0 -13 18 -34 40 -21 22 -41 40
-44 40 -3 0 13 -18 34 -40z"/>
<path d="M7018 12013 c18 -2 45 -2 60 0 15 2 0 4 -33 4 -33 0 -45 -2 -27 -4z"/>
<path d="M7315 17343 c-11 -2 -43 -11 -71 -19 l-51 -16 34 -66 c28 -55 39 -99
63 -237 83 -484 228 -876 430 -1163 53 -76 180 -216 187 -208 3 3 11 41 19 84
16 96 56 223 95 311 24 53 29 77 29 145 0 45 11 137 25 206 40 202 31 319 -34
448 -93 183 -334 379 -591 480 -91 36 -109 41 -135 35z"/>
<path d="M6103 16871 c-43 -27 -47 -57 -23 -204 11 -70 20 -133 20 -142 0 -25
-24 -17 -61 21 -54 56 -190 142 -281 177 -80 31 -88 32 -238 32 -152 0 -157
-1 -262 -37 -131 -45 -218 -89 -334 -167 -188 -126 -351 -274 -398 -362 -22
-40 -30 -70 -34 -125 -4 -70 -4 -72 19 -73 13 0 228 -2 478 -5 565 -7 757 -22
1296 -107 278 -43 393 -72 657 -161 130 -44 244 -78 252 -76 10 2 -12 33 -66
93 -346 388 -451 576 -467 834 l-6 94 -67 51 c-153 117 -266 168 -378 174 -61
2 -81 -1 -107 -17z"/>
</g>
</svg>
